<svg xmlns="http://www.w3.org/2000/svg" width="50" height="50" viewBox="0 0 50 50">
    <defs>
        <style>
            .cls-2{fill:#57a4ff}.cls-3{fill:#e0e0e2}.cls-8{fill:#2488ff}.cls-9{fill:#c6c5ca}
        </style>
    </defs>
    <g id="Group_128" transform="translate(-435 -681)">
        <circle id="Ellipse_43" cx="25" cy="25" r="25" fill="#bfe6dc" transform="translate(435 681)"/>
        <g id="computer_coding" transform="translate(440 687)">
            <path id="Path_354" d="M36.239 15H4.187A1.187 1.187 0 0 0 3 16.187v16.62h34.426v-16.62A1.187 1.187 0 0 0 36.239 15z" class="cls-2" transform="translate(-.406 -5.284)"/>
            <path id="Path_355" d="M37.426 45v2.374a1.191 1.191 0 0 1-1.187 1.187H4.187A1.191 1.191 0 0 1 3 47.374V45z" class="cls-3" transform="translate(-.406 -17.477)"/>
            <path id="Path_356" fill="#46f8ff" d="M35.555 11v14.245a1.191 1.191 0 0 1-1.187 1.187H14.187A1.191 1.191 0 0 1 13 25.245V11z" transform="translate(-4.471 -3.658)"/>
            <path id="Path_357" fill="#00e7f0" d="M48.561 11v14.245a1.191 1.191 0 0 1-1.187 1.187H45a1.191 1.191 0 0 0 1.187-1.187V11z" transform="translate(-17.477 -3.658)"/>
            <path id="Path_358" fill="#ffde55" d="M35.555 4.187v3.561H13V4.187A1.191 1.191 0 0 1 14.187 3h20.181a1.191 1.191 0 0 1 1.187 1.187z" transform="translate(-4.471 -.406)"/>
            <path id="Path_359" fill="#ffcd00" d="M48.561 4.187v3.561h-2.374V4.187A1.191 1.191 0 0 0 45 3h2.374a1.191 1.191 0 0 1 1.187 1.187z" transform="translate(-17.477 -.406)"/>
            <path id="Path_360" d="M32.839 57l1.781 2.374H18L19.781 57h13.058z" class="cls-3" transform="translate(-6.503 -22.355)"/>
            <path id="Path_361" d="M32.716 51l.594 3.561H25L25.594 51z" class="cls-2" transform="translate(-9.348 -19.916)"/>
            <path id="Path_362" d="M58.155 16.187v16.62h-2.968v-16.62A1.191 1.191 0 0 0 54 15h2.968a1.191 1.191 0 0 1 1.187 1.187z" class="cls-8" transform="translate(-21.135 -5.284)"/>
            <path id="Path_363" d="M58.155 45v2.374a1.191 1.191 0 0 1-1.187 1.187H54a1.191 1.191 0 0 0 1.187-1.187V45z" class="cls-9" transform="translate(-21.135 -17.477)"/>
            <path id="Path_364" d="M42.748 59.374h-2.967L38 57h2.968z" class="cls-9" transform="translate(-14.632 -22.355)"/>
            <path id="Path_365" d="M36.561 54.561h-2.967L33 51h2.968z" class="cls-8" transform="translate(-12.6 -19.916)"/>
            <path id="Path_366" d="M35.833 9.123h-4.155V3.781A1.786 1.786 0 0 0 29.9 2H9.716a1.786 1.786 0 0 0-1.78 1.781v5.342H3.781A1.786 1.786 0 0 0 2 10.9v19a1.786 1.786 0 0 0 1.781 1.781h11.764l-.4 2.374h-1.87a.6.6 0 0 0-.475.237l-1.781 2.374a.594.594 0 0 0-.053.623.58.58 0 0 0 .528.326h16.62a.58.58 0 0 0 .528-.326.594.594 0 0 0-.053-.623l-1.781-2.374a.6.6 0 0 0-.475-.237h-1.87l-.4-2.374h11.77a1.786 1.786 0 0 0 1.78-1.781v-19a1.786 1.786 0 0 0-1.781-1.781zM9.123 3.781a.594.594 0 0 1 .594-.594H29.9a.594.594 0 0 1 .594.594v2.967H9.123zm0 4.155h21.368v13.651a.594.594 0 0 1-.594.594H9.716a.594.594 0 0 1-.594-.594zm16.916 27.3l.89 1.187H12.684l.89-1.187zm-9.687-1.187l.4-2.374h6.114l.4 2.374zM36.426 29.9a.594.594 0 0 1-.594.594H3.781a.594.594 0 0 1-.594-.594v-1.784h33.239zm0-2.968H3.187V10.9a.594.594 0 0 1 .594-.594h4.155v11.281a1.786 1.786 0 0 0 1.781 1.781h2.373v1.187H7.936v1.187h4.748a.594.594 0 0 0 .594-.594v-1.78h3.561v2.374h1.187v-2.374h3.561v2.374h1.187v-2.374h3.561v1.781a.594.594 0 0 0 .594.594h4.748v-1.188h-4.154v-1.187H29.9a1.786 1.786 0 0 0 1.781-1.781V10.31h4.155a.594.594 0 0 1 .594.594z"/>
            <path id="Path_367" d="M46 6h1.187v1.187H46z" transform="translate(-17.884 -1.626)"/>
            <path id="Path_368" d="M42 6h1.187v1.187H42z" transform="translate(-16.258 -1.626)"/>
            <path id="Path_369" d="M38 6h1.187v1.187H38z" transform="translate(-14.632 -1.626)"/>
            <path id="Path_370" d="M23.735 17.293l-3.561 3.561a.594.594 0 0 0 0 .839l3.561 3.561.839-.839-3.142-3.142 3.142-3.142z" transform="translate(-7.316 -6.216)"/>
            <path id="Path_371" d="M37.132 17.293l-.839.839 3.142 3.142-3.142 3.142.839.839 3.561-3.561a.594.594 0 0 0 0-.839z" transform="translate(-13.938 -6.216)"/>
            <path id="Path_372" d="M0 0h11.262v1.187H0z" transform="rotate(-71.58 22.738 -2.012)"/>
        </g>
    </g>
</svg>
