<svg xmlns="http://www.w3.org/2000/svg" width="50" height="50" viewBox="0 0 50 50">
    <defs>
        <style>
            .cls-3{fill:#f9f5f3}.cls-4{fill:#868eaf}.cls-5{fill:#f9eae0}.cls-6{fill:#79d191}
        </style>
    </defs>
    <g id="Group_158" transform="translate(-121 -681)">
        <g id="Group_127">
            <g id="Group_189">
                <circle id="Ellipse_42" cx="25" cy="25" r="25" fill="#abb6fc" transform="translate(121 681)"/>
                <g id="Group_179" transform="translate(13 31)">
                    <g id="interview" transform="translate(113.751 660)">
                        <g id="Group_187" transform="translate(.564 .564)">
                            <path id="Path_471" fill="#89dd8e" d="M68.469 52.691h8.719a2.491 2.491 0 0 1 2.491 2.491v14.947a2.491 2.491 0 0 1-2.491 2.491h-3.114a.623.623 0 0 0-.623.623V76.1a.623.623 0 0 1-1.063.44l-3.737-3.74a.623.623 0 0 0-.44-.182h-12.2a2.491 2.491 0 0 1-2.491-2.491v-6.536z" transform="translate(-42.311 -43.972)"/>
                            <path id="Path_472" d="M26.23 13.056H5.054a2.491 2.491 0 0 0-2.491 2.491v14.948a2.491 2.491 0 0 0 2.491 2.491h3.114a.623.623 0 0 1 .623.623v2.856a.623.623 0 0 0 1.063.44l3.737-3.737a.623.623 0 0 1 .44-.182h12.2a2.491 2.491 0 0 0 2.491-2.491V15.548a2.491 2.491 0 0 0-2.491-2.491z" class="cls-3" transform="translate(-2.563 -13.056)"/>
                            <circle id="Ellipse_82" cx="1.245" cy="1.245" r="1.245" class="cls-3" transform="rotate(-80.792 23.135 2.211)"/>
                            <g id="Group_181" transform="translate(9.342 2.491)">
                                <g id="Group_180">
                                    <circle id="Ellipse_83" cx="1.245" cy="1.245" r="1.245" class="cls-4" transform="rotate(-45 17.525 4.47)"/>
                                    <g id="Group_179-2">
                                        <path id="Path_473" d="M48.765 34.346a1.246 1.246 0 0 1-1.246-1.246v-1.245a2.777 2.777 0 0 1 1.718-2.584 1.246 1.246 0 1 0-1.322-2.064 1.234 1.234 0 0 0-.4.911 1.246 1.246 0 0 1-2.491 0 3.737 3.737 0 1 1 5.156 3.458.3.3 0 0 0-.173.279V33.1a1.245 1.245 0 0 1-1.242 1.246z" class="cls-4" transform="translate(-45.028 -24.382)"/>
                                    </g>
                                </g>
                            </g>
                            <circle id="Ellipse_84" cx="1.245" cy="1.245" r="1.245" class="cls-3" transform="rotate(-76.7 29.749 -5.643)"/>
                            <circle id="Ellipse_85" cx="1.245" cy="1.245" r="1.245" class="cls-3" transform="rotate(-80.792 25.937 -1.082)"/>
                            <g id="Group_182" transform="translate(6.228)">
                                <path id="Path_474" d="M33.883 103.831l-3.009 3.009v.287a.623.623 0 0 0 1.063.44l3.737-3.737a.623.623 0 0 1 .44-.182h-1.791a.623.623 0 0 0-.44.183z" class="cls-5" transform="translate(-30.873 -83.719)"/>
                                <path id="Path_475" d="M103.793 13.056H102a2.491 2.491 0 0 1 2.491 2.491v14.948A2.491 2.491 0 0 1 102 32.986h1.791a2.491 2.491 0 0 0 2.491-2.491V15.548a2.491 2.491 0 0 0-2.489-2.492z" class="cls-5" transform="translate(-86.354 -13.056)"/>
                            </g>
                            <g id="Group_186" transform="translate(29.35 8.719)">
                                <g id="Group_185">
                                    <g id="Group_183" transform="translate(0 19.93)">
                                        <path id="Path_476" d="M135.975 143.906v2.569l.727.727a.623.623 0 0 0 1.063-.44v-2.856a.623.623 0 0 1 .623-.623H136.6a.623.623 0 0 0-.625.623z" class="cls-6" transform="translate(-135.975 -143.283)"/>
                                    </g>
                                    <g id="Group_184" transform="translate(3.737)">
                                        <path id="Path_477" d="M154.751 52.691h-1.791a2.491 2.491 0 0 1 2.491 2.491v14.947a2.491 2.491 0 0 1-2.491 2.491h1.791a2.491 2.491 0 0 0 2.491-2.491V55.182a2.491 2.491 0 0 0-2.491-2.491z" class="cls-6" transform="translate(-152.96 -52.691)"/>
                                    </g>
                                </g>
                            </g>
                        </g>
                        <g id="Group_188">
                            <path id="Path_478" d="M35.441 19.213h-8.156v-5.665a3.059 3.059 0 0 0-3.055-3.055H3.055A3.059 3.059 0 0 0 0 13.548v8.4a.564.564 0 0 0 1.128 0v-8.4a1.929 1.929 0 0 1 1.927-1.927H24.23a1.929 1.929 0 0 1 1.927 1.927V28.5a1.929 1.929 0 0 1-1.927 1.927h-12.2a1.179 1.179 0 0 0-.839.348l-3.735 3.733a.059.059 0 0 1-.1-.042V31.61a1.188 1.188 0 0 0-1.187-1.187H3.055A1.93 1.93 0 0 1 1.128 28.5v-4.3A.564.564 0 1 0 0 24.2v4.3a3.059 3.059 0 0 0 3.055 3.055h3.114a.059.059 0 0 1 .059.059v2.856a1.186 1.186 0 0 0 2.026.839l2.957-2.957v4.867a3.058 3.058 0 0 0 3.055 3.055H21.1a.564.564 0 1 0 0-1.128h-6.83a1.929 1.929 0 0 1-1.927-1.927v-5.668H24.23a3.058 3.058 0 0 0 3.056-3.051v-8.16h8.155a1.929 1.929 0 0 1 1.927 1.927v14.948a1.929 1.929 0 0 1-1.927 1.927h-3.114a1.188 1.188 0 0 0-1.187 1.187v2.856a.059.059 0 0 1-.1.042L27.3 39.49a1.179 1.179 0 0 0-.839-.348h-3.11a.564.564 0 0 0 0 1.128h3.113a.059.059 0 0 1 .042.017l3.737 3.737a1.187 1.187 0 0 0 2.026-.839v-2.856a.059.059 0 0 1 .059-.059h3.114a3.058 3.058 0 0 0 3.058-3.055V22.268a3.059 3.059 0 0 0-3.055-3.055z" transform="translate(0 -10.493)"/>
                            <path id="Path_479" d="M79.268 114.219a1.809 1.809 0 1 0 1.809-1.809 1.812 1.812 0 0 0-1.809 1.809zm2.491 0a.682.682 0 1 1-.682-.682.682.682 0 0 1 .682.682z" transform="translate(-61.83 -89.989)"/>
                            <path id="Path_480" d="M53.789 80.247a1.809 1.809 0 1 0 1.81-1.809 1.812 1.812 0 0 0-1.81 1.809zm2.491 0a.682.682 0 1 1-.682-.682.682.682 0 0 1 .682.682z" transform="translate(-41.956 -63.491)"/>
                            <path id="Path_481" d="M48.575 30.021a4.3 4.3 0 1 0-6.11-3.9 1.809 1.809 0 0 0 3.619 0 .667.667 0 0 1 .217-.5.684.684 0 0 1 .517-.181.7.7 0 0 1 .628.628.685.685 0 0 1-.421.683 3.339 3.339 0 0 0-2.068 3.105V31.1a1.809 1.809 0 1 0 3.619 0v-1.08zm-.6-.966a.856.856 0 0 0-.523.8V31.1a.682.682 0 1 1-1.363 0v-1.244a2.215 2.215 0 0 1 1.369-2.062 1.811 1.811 0 0 0 1.118-1.8 1.834 1.834 0 0 0-1.676-1.675h-.128a1.81 1.81 0 0 0-1.81 1.81.682.682 0 0 1-1.363 0 3.173 3.173 0 1 1 4.378 2.936z" transform="translate(-33.123 -19.327)"/>
                            <path id="Path_482" d="M133.846 114.219a1.809 1.809 0 1 0-1.809 1.809 1.811 1.811 0 0 0 1.809-1.809zm-2.491 0a.682.682 0 1 1 .682.682.682.682 0 0 1-.683-.682z" transform="translate(-101.578 -89.989)"/>
                            <path id="Path_483" d="M106.557 116.029a1.809 1.809 0 1 0-1.81-1.809 1.812 1.812 0 0 0 1.81 1.809zm0-2.491a.682.682 0 1 1-.682.682.682.682 0 0 1 .682-.682z" transform="translate(-81.704 -89.989)"/>
                        </g>
                    </g>
                </g>
            </g>
        </g>
    </g>
</svg>
