<svg xmlns="http://www.w3.org/2000/svg" width="32.8" height="32.8" viewBox="0 0 32.8 32.8">
    <g>
        <g transform="translate(1 3) rotate(90 14.9 14.9)">
            <circle cx="15.4" cy="15.4" r="15.4" fill="#d37489" stroke="#fdd6df" stroke-width="2px" transform="translate(-2 -1)"/>
            <g>
                <path fill="#fff" d="M8.267 7.6a3.245 3.245 0 0 0 .114 4.325 3.216 3.216 0 0 0 5.254-.912l4.145-8.035a.266.266 0 0 0-.355-.355L9.39 6.767a3.25 3.25 0 0 0-1.123.833zm1.465 1.132a1.369 1.369 0 0 1 .969-.4 1.375 1.375 0 0 1 .974 2.346 1.374 1.374 0 0 1-1.943-1.946zm9.575 1.987a8.572 8.572 0 0 0-1.158-4.311 1.062 1.062 0 0 1 1.838-1.066 10.738 10.738 0 0 1 1.443 5.377 1.061 1.061 0 1 1-2.123 0zM0 10.718A10.727 10.727 0 0 1 10.715 0a10.586 10.586 0 0 1 3.974.763 1.06 1.06 0 1 1-.789 1.973 8.6 8.6 0 0 0-11.777 7.982 1.061 1.061 0 0 1-2.123 0z" transform="rotate(-90 14.9 9.9)"/>
            </g>
        </g>
    </g>
</svg>
