<svg xmlns="http://www.w3.org/2000/svg" width="32.8" height="32.8" viewBox="0 0 32.8 32.8">
    <defs>
        <style>
            .cls-2{fill:#fff}
        </style>
    </defs>
    <g id="Group" transform="translate(1 3)">
        <g id="Group-18" transform="rotate(90 14.9 14.9)">
            <circle id="Oval" cx="15.4" cy="15.4" r="15.4" fill="#d37489" stroke="#fdd6df" stroke-width="2px" transform="translate(-2 -1)"/>
            <g id="route" transform="rotate(-90 15.5 9.5)">
                <path id="Shape" d="M14.927 2.232a1.895 1.895 0 1 0 1.895 1.895 1.9 1.9 0 0 0-1.895-1.895zm0 2.526a.632.632 0 1 1 .632-.632.632.632 0 0 1-.632.632z" class="cls-2" transform="translate(2.209 .366)"/>
                <path id="Shape-2" d="M17.136.072a4.426 4.426 0 0 0-4.421 4.421c0 1.706 1.036 2.969 2.038 4.19a7.25 7.25 0 0 1 1.679 2.757H3.158a1.895 1.895 0 1 1 0-3.789h5.768a2.526 2.526 0 0 0 0-5.052h-3.2v1.262h3.2a1.263 1.263 0 0 1 0 2.526H3.158a3.158 3.158 0 1 0 0 6.315h14.61v-.632c0-1.254.851-2.291 1.751-3.389 1-1.221 2.038-2.484 2.038-4.19A4.426 4.426 0 0 0 17.136.072zm1.406 7.809a13.608 13.608 0 0 0-1.406 1.934 13.612 13.612 0 0 0-1.406-1.934c-.9-1.1-1.751-2.135-1.751-3.389a3.158 3.158 0 1 1 6.315 0c0 1.255-.851 2.292-1.752 3.389z" class="cls-2"/>
            </g>
        </g>
    </g>
</svg>
