<svg xmlns="http://www.w3.org/2000/svg" width="50" height="50" viewBox="0 0 50 50">
    <defs>
        <style>
            .cls-2{fill:#c3ddff}.cls-4{fill:#ff8086}.cls-5{fill:#e5646e}
        </style>
    </defs>
    <g id="Group_131" transform="translate(-749 -681)">
        <circle id="Ellipse_44" cx="25" cy="25" r="25" fill="#ffd8de" transform="translate(749 681)"/>
        <g id="rocket" transform="translate(757 670.968)">
            <g id="Group_129" transform="translate(.519 16.791)">
                <path id="Path_373" d="M74.759 151.79H49.245a1.664 1.664 0 0 0-1.664 1.664v20.522h28.841v-20.522a1.664 1.664 0 0 0-1.664-1.664z" class="cls-2" transform="translate(-44.808 -143.155)"/>
                <path id="Path_374" fill="#dbeaff" d="M96.033 193.588h-23.3a1.109 1.109 0 0 1-1.109-1.109v-15.53a1.109 1.109 0 0 1 1.109-1.109h23.3a1.109 1.109 0 0 1 1.109 1.109v15.53a1.109 1.109 0 0 1-1.109 1.109z" transform="translate(-67.192 -165.54)"/>
                <path id="Path_375" d="M163.135 191.871l-2.927 3.415a1.664 1.664 0 0 0-.4 1.083v1.6l4.992-2.769z" class="cls-4" transform="translate(-149.269 -180.463)"/>
                <path id="Path_376" d="M185.175 196.456l2.263-1.257-1.664-3.328-1.645 1.919a14.858 14.858 0 0 0 1.046 2.666z" class="cls-5" transform="translate(-171.908 -180.463)"/>
                <path id="Path_377" d="M281.712 191.871l2.927 3.415a1.664 1.664 0 0 1 .4 1.083v1.6l-4.992-2.773z" class="cls-4" transform="translate(-261.19 -180.463)"/>
                <path id="Path_378" fill="#dad8db" d="M7.5 456.4v1.109a1.109 1.109 0 0 0 1.109 1.109h32.17a1.109 1.109 0 0 0 1.109-1.109V456.4z" transform="translate(-7.5 -426.691)"/>
                <path id="Path_379" fill="#ffe07d" d="M204.169 27.164a.549.549 0 0 0-.8 0 13.442 13.442 0 0 0-1.392 16.227h3.584a13.442 13.442 0 0 0-1.392-16.227z" transform="translate(-186.576 -26.991)"/>
                <path id="Path_380" fill="#ffd064" d="M203.438 98.2a.573.573 0 0 1-.518-.35 12.833 12.833 0 0 1-.074-10.188h-2.008a13.473 13.473 0 0 0-.95 4.992 13.336 13.336 0 0 0 2.091 7.21h3.584a13.131 13.131 0 0 0 .9-1.664h-3.025z" transform="translate(-186.576 -83.464)"/>
                <path id="Path_381" fill="#c8c5c9" d="M228.372 266.235h-4.437l.427-2.219h3.584z" transform="translate(-208.96 -247.616)"/>
                <circle id="Ellipse_59" cx="1.664" cy="1.664" r="1.664" class="cls-2" transform="translate(15.53 6.971)"/>
                <path id="Path_382" d="M213.619 31.187h5.865a12.98 12.98 0 0 0-2.533-4.025.549.549 0 0 0-.8 0 12.98 12.98 0 0 0-2.532 4.025z" class="cls-4" transform="translate(-199.357 -26.99)"/>
                <path id="Path_383" d="M215.629 31.187a12.463 12.463 0 0 1 1.981-3.245c-.211-.268-.428-.531-.658-.78a.549.549 0 0 0-.8 0 12.976 12.976 0 0 0-2.533 4.025z" class="cls-5" transform="translate(-199.358 -26.99)"/>
                <path id="Path_384" fill="#fff" d="M107.074 332.027a3.87 3.87 0 0 0-1.269.216 2.744 2.744 0 0 0-4.388-1.222 2.195 2.195 0 0 0 .111-.659 2.219 2.219 0 0 0-4.437 0 2.195 2.195 0 0 0 .111.659 2.744 2.744 0 0 0-4.388 1.222 3.878 3.878 0 0 0-4.989 4.775h22.969a3.879 3.879 0 0 0-3.72-4.992z" transform="translate(-82.115 -307.307)"/>
                <path id="Path_385" fill="#a4ccff" d="M234.661 127.742a1.659 1.659 0 0 0-1.586 1.187 1.646 1.646 0 0 1 .477-.078 1.641 1.641 0 0 1 1.586 2.141 1.659 1.659 0 0 0-.477-3.25z" transform="translate(-217.467 -120.771)"/>
            </g>
            <g id="Group_130" transform="translate(0 16.033)">
                <path id="Path_386" d="M34.907 165.367h-2.254v-18.893a2.185 2.185 0 0 0-2.183-2.183h-6.656a.519.519 0 1 0 0 1.038h6.656a1.146 1.146 0 0 1 1.145 1.145v18.894h-1.777a4.36 4.36 0 0 0 .041-.59 4.406 4.406 0 0 0-4.4-4.4 4.341 4.341 0 0 0-.973.111 3.282 3.282 0 0 0-2.909-1.775 3.2 3.2 0 0 0-1.162.216 2.738 2.738 0 0 0-5.442 0 3.2 3.2 0 0 0-1.162-.216 3.282 3.282 0 0 0-2.909 1.775 4.336 4.336 0 0 0-.973-.111 4.406 4.406 0 0 0-4.4 4.4 4.359 4.359 0 0 0 .041.59H3.811v-18.894a1.146 1.146 0 0 1 1.145-1.145h6.656a.519.519 0 1 0 0-1.038H4.956a2.185 2.185 0 0 0-2.183 2.183v18.894H.519a.519.519 0 0 0-.519.519V167a1.63 1.63 0 0 0 1.628 1.628H33.8A1.63 1.63 0 0 0 35.426 167v-1.109a.519.519 0 0 0-.519-.524zM34.388 167a.591.591 0 0 1-.59.59H1.628a.591.591 0 0 1-.59-.59v-.59h6.691a.519.519 0 0 0 0-1.038H6.637a3.331 3.331 0 0 1-.053-.59 3.356 3.356 0 0 1 4.463-3.176.519.519 0 0 0 .661-.322 2.249 2.249 0 0 1 2.122-1.529 2.219 2.219 0 0 1 1.441.537.519.519 0 0 0 .829-.552 1.667 1.667 0 0 1-.087-.5 1.7 1.7 0 1 1 3.4 0 1.667 1.667 0 0 1-.087.5.519.519 0 0 0 .829.552 2.22 2.22 0 0 1 1.441-.537 2.249 2.249 0 0 1 2.122 1.529.519.519 0 0 0 .661.322 3.358 3.358 0 0 1 4.41 3.766H9.948a.519.519 0 0 0 0 1.038h24.44z" transform="translate(0 -135.417)"/>
                <path id="Path_387" d="M152.813 31.286a2.187 2.187 0 0 0-.506 1.4V34.3a.519.519 0 0 0 .774.452l3.7-2.085q.211.386.448.758l-.465 1.858a.519.519 0 0 0 .5.645h4.436a.519.519 0 0 0 .5-.645l-.465-1.858q.237-.372.448-.758l3.7 2.085a.519.519 0 0 0 .774-.452v-1.616a2.187 2.187 0 0 0-.506-1.4l-2.463-2.955a14.162 14.162 0 0 0 .2-2.351 13.927 13.927 0 0 0-1.089-5.437 13.367 13.367 0 0 0-2.948-4.362.519.519 0 0 0-.728 0 13.366 13.366 0 0 0-2.948 4.362 13.927 13.927 0 0 0-1.089 5.437 14.165 14.165 0 0 0 .2 2.347zm.532 2.125v-.727a1.147 1.147 0 0 1 .265-.733l1.945-2.334a13.761 13.761 0 0 0 .757 2.12zm4.583 1.479l.3-1.181h2.518l.3 1.181zm7.425-2.94a1.147 1.147 0 0 1 .265.733v.727l-2.967-1.674a13.763 13.763 0 0 0 .757-2.12zm-5.871-14.65a12.393 12.393 0 0 1 2.136 3.174h-4.273a12.393 12.393 0 0 1 2.137-3.174zm-2.569 4.212h5.138a13 13 0 0 1 .795 4.473 12.831 12.831 0 0 1-1.859 6.691h-3.008a12.831 12.831 0 0 1-1.859-6.691 13.006 13.006 0 0 1 .793-4.478z" transform="translate(-141.769 -16.033)"/>
                <path id="Path_388" d="M228.818 122.425a2.183 2.183 0 1 0-2.183 2.183 2.185 2.185 0 0 0 2.183-2.183zm-3.328 0a1.145 1.145 0 1 1 1.145 1.145 1.146 1.146 0 0 1-1.145-1.145z" transform="translate(-208.922 -113.032)"/>
            </g>
        </g>
    </g>
</svg>
